<svg width="16" height="19" viewBox="0 0 16 19" fill="none" xmlns="http://www.w3.org/2000/svg">
<g clip-path="url(#clip0_201_80)">
<path fill-rule="evenodd" clip-rule="evenodd" d="M15.3333 7.25H0.666667C0.3 7.25 0 7.5875 0 8V11C0 11.4125 0.3 11.75 0.666667 11.75H0.8L2 17.9C2.06667 18.2375 2.33333 18.5 2.66667 18.5H13.3333C13.6333 18.5 13.9 18.2375 14 17.9L15.2 11.75H15.3333C15.7 11.75 16 11.4125 16 11V8C16 7.5875 15.7 7.25 15.3333 7.25ZM1.33333 8.75H14.6667V10.55H1.33333V8.75ZM3.2 17H12.8L13.8333 11.75H2.16667L3.2 17Z" fill="white"/>
<path d="M4.00016 6.5C4.36683 6.5 4.66683 6.1625 4.66683 5.75C4.66683 3.6875 6.16683 2 8.00016 2C9.8335 2 11.3335 3.6875 11.3335 5.75C11.3335 6.1625 11.6335 6.5 12.0002 6.5C12.3668 6.5 12.6668 6.1625 12.6668 5.75C12.6668 2.8625 10.5668 0.5 8.00016 0.5C5.4335 0.5 3.3335 2.8625 3.3335 5.75C3.3335 6.1625 3.6335 6.5 4.00016 6.5Z" fill="white"/>
</g>
<defs>
<clipPath id="clip0_201_80">
<rect width="16" height="18" fill="white" transform="translate(0 0.5)"/>
</clipPath>
</defs>
</svg>
