<svg width="123" height="47" viewBox="0 0 123 47" fill="none" xmlns="http://www.w3.org/2000/svg">
<path d="M10.1662 31.3376C7.72357 31.3376 5.91557 30.7563 4.74223 29.5936C3.57957 28.4203 2.99823 26.6123 2.99823 24.1696V16.8096C2.99823 14.3456 3.57957 12.5323 4.74223 11.3696C5.9049 10.1963 7.70223 9.62031 10.1342 9.64165H14.0062C16.0116 9.64165 17.5422 10.0576 18.5982 10.8896C19.6542 11.711 20.2676 13.0123 20.4382 14.7936C20.5022 15.2416 20.4169 15.583 20.1822 15.8176C19.9476 16.0523 19.6062 16.1696 19.1582 16.1696C18.3476 16.1696 17.8782 15.7216 17.7502 14.8256C17.6436 13.8443 17.3022 13.183 16.7262 12.8416C16.1609 12.5003 15.2542 12.3296 14.0062 12.3296H10.1342C9.00357 12.319 8.1129 12.447 7.46223 12.7136C6.82223 12.9803 6.36357 13.4443 6.08623 14.1056C5.81957 14.7563 5.68623 15.6576 5.68623 16.8096V24.1696C5.68623 25.311 5.81957 26.207 6.08623 26.8576C6.36357 27.5083 6.82757 27.9723 7.47823 28.2496C8.1289 28.5163 9.0249 28.6496 10.1662 28.6496H14.0062C14.9982 28.6496 15.7716 28.543 16.3262 28.3296C16.8916 28.1056 17.2862 27.7163 17.5102 27.1616C17.7342 26.607 17.8462 25.823 17.8462 24.8096V23.3056L15.3502 23.2736C14.4542 23.2736 14.0062 22.8256 14.0062 21.9296C14.0062 21.0336 14.4542 20.5856 15.3502 20.5856L19.1902 20.6176C20.0862 20.6176 20.5342 21.0656 20.5342 21.9616V24.8096C20.5342 27.0816 20.0062 28.7403 18.9502 29.7856C17.8942 30.8203 16.2462 31.3376 14.0062 31.3376H10.1662ZM34.317 31.3376C32.525 31.3376 31.1916 30.9003 30.317 30.0256C29.4423 29.151 29.005 27.8176 29.005 26.0256C29.005 24.2336 29.437 22.9003 30.301 22.0256C31.1756 21.151 32.5143 20.7136 34.317 20.7136H41.085C41.021 19.5936 40.7277 18.831 40.205 18.4256C39.6823 18.0096 38.7863 17.8016 37.517 17.8016H35.661C34.5943 17.8016 33.7996 17.8763 33.277 18.0256C32.7543 18.1643 32.3863 18.4203 32.173 18.7936C31.981 19.2416 31.7836 19.551 31.581 19.7216C31.3783 19.8923 31.0743 19.9776 30.669 19.9776C30.221 19.9776 29.869 19.855 29.613 19.6096C29.357 19.3536 29.2823 19.0176 29.389 18.6016C29.709 17.3963 30.3756 16.5163 31.389 15.9616C32.413 15.3963 33.837 15.1136 35.661 15.1136H37.517C39.6503 15.1136 41.229 15.6256 42.253 16.6496C43.277 17.6736 43.789 19.2523 43.789 21.3856V29.9936C43.789 30.8896 43.341 31.3376 42.445 31.3376C41.549 31.3376 41.101 30.8896 41.101 29.9936V29.2736C39.9596 30.6496 38.2956 31.3376 36.109 31.3376H34.317ZM34.317 28.6496H36.109C36.8983 28.6496 37.6396 28.5803 38.333 28.4416C39.0263 28.2923 39.6183 28.0256 40.109 27.6416C40.6103 27.2576 40.941 26.7083 41.101 25.9936V23.4016H34.317C33.261 23.4016 32.557 23.5776 32.205 23.9296C31.8636 24.2816 31.693 24.9803 31.693 26.0256C31.693 27.0816 31.8636 27.7856 32.205 28.1376C32.557 28.479 33.261 28.6496 34.317 28.6496ZM71.7375 15.1136C73.7535 15.1136 75.1988 15.5883 76.0735 16.5376C76.9588 17.487 77.4015 19.0603 77.4015 21.2576V29.9936C77.4015 30.8896 76.9535 31.3376 76.0575 31.3376C75.1615 31.3376 74.7135 30.8896 74.7135 29.9936V21.2576C74.7135 20.0416 74.4788 19.1616 74.0095 18.6176C73.5508 18.0736 72.7935 17.8016 71.7375 17.8016H70.4255C69.2095 17.8016 68.3402 18.0736 67.8175 18.6176C67.2948 19.1616 67.0335 20.0416 67.0335 21.2576V29.9936C67.0335 30.8896 66.5855 31.3376 65.6895 31.3376C64.7935 31.3376 64.3455 30.8896 64.3455 29.9936V21.2576C64.3455 20.0416 64.1108 19.1616 63.6415 18.6176C63.1828 18.0736 62.4255 17.8016 61.3695 17.8016H60.0575C58.8415 17.8016 57.9721 18.0736 57.4495 18.6176C56.9268 19.1616 56.6655 20.0416 56.6655 21.2576V29.9936C56.6655 30.8896 56.2175 31.3376 55.3215 31.3376C54.4255 31.3376 53.9775 30.8896 53.9775 29.9936V16.4576C53.9775 15.5616 54.4255 15.1136 55.3215 15.1136C56.2175 15.1136 56.6655 15.5616 56.6655 16.4576V17.1936C57.2308 16.4576 57.8495 15.9296 58.5215 15.6096C59.2042 15.279 60.0148 15.1136 60.9535 15.1136H61.3695C62.6921 15.1136 63.7322 15.3003 64.4895 15.6736C65.2468 16.0363 65.8228 16.6283 66.2175 17.4496C66.7828 16.607 67.3801 16.0096 68.0095 15.6576C68.6495 15.295 69.4548 15.1136 70.4255 15.1136H71.7375ZM89.4875 24.3296V25.0976C89.4875 26.4736 89.7381 27.4123 90.2395 27.9136C90.7408 28.4043 91.6848 28.6496 93.0715 28.6496H95.6955C96.7835 28.6496 97.5888 28.5483 98.1115 28.3456C98.6341 28.143 98.9808 27.7856 99.1515 27.2736C99.2688 26.8683 99.4288 26.559 99.6315 26.3456C99.8448 26.1323 100.165 26.0256 100.591 26.0256C101.039 26.0256 101.381 26.143 101.615 26.3776C101.85 26.6123 101.925 26.9536 101.839 27.4016C101.605 28.7243 100.975 29.711 99.9515 30.3616C98.9275 31.0123 97.5088 31.3376 95.6955 31.3376H93.0715C90.9488 31.3376 89.3701 30.8256 88.3355 29.8016C87.3115 28.7776 86.7995 27.2096 86.7995 25.0976V21.3856C86.7995 19.2203 87.3115 17.631 88.3355 16.6176C89.3701 15.5936 90.9488 15.0923 93.0715 15.1136H95.6955C97.8288 15.1136 99.4075 15.6256 100.431 16.6496C101.455 17.663 101.967 19.2416 101.967 21.3856V22.9856C101.967 23.8816 101.519 24.3296 100.623 24.3296H89.4875ZM93.0715 17.8016C91.6848 17.7803 90.7408 18.0203 90.2395 18.5216C89.7381 19.023 89.4875 19.9776 89.4875 21.3856V21.6416H99.2795V21.3856C99.2795 19.9883 99.0288 19.0443 98.5275 18.5536C98.0368 18.0523 97.0928 17.8016 95.6955 17.8016H93.0715ZM113.033 31.3376C112.137 31.3376 111.689 30.8896 111.689 29.9936V16.4576C111.689 15.5616 112.137 15.1136 113.033 15.1136C113.929 15.1136 114.377 15.5616 114.377 16.4576V17.7056C115.006 16.8523 115.806 16.207 116.777 15.7696C117.758 15.3323 118.878 15.1136 120.137 15.1136C121.033 15.1136 121.481 15.5616 121.481 16.4576C121.481 17.3536 121.033 17.8016 120.137 17.8016C118.291 17.8016 116.883 18.143 115.913 18.8256C114.942 19.5083 114.43 20.4096 114.377 21.5296V29.9936C114.377 30.8896 113.929 31.3376 113.033 31.3376Z" fill="white"/>
<path d="M2.22323 44.5326C1.81323 44.5326 1.60823 44.2926 1.60823 43.8126V35.3376C1.60823 34.8476 1.81823 34.6026 2.23823 34.6026C2.65823 34.6026 2.86823 34.8626 2.86823 35.3826V42.2901L8.10323 34.9851C8.29323 34.7301 8.50823 34.6026 8.74823 34.6026C9.14823 34.6026 9.34823 34.8476 9.34823 35.3376V43.8126C9.34823 44.2926 9.13823 44.5326 8.71823 44.5326C8.29823 44.5326 8.08823 44.3076 8.08823 43.8576V36.8601L2.91323 44.1201C2.79323 44.2901 2.68823 44.4001 2.59823 44.4501C2.51323 44.5051 2.38823 44.5326 2.22323 44.5326ZM12.2864 44.5326C11.8664 44.5326 11.6564 44.2926 11.6564 43.8126V36.7926C11.6564 36.0326 11.7864 35.4951 12.0464 35.1801C12.3114 34.8651 12.7614 34.7076 13.3964 34.7076H18.4214C18.9314 34.7076 19.1864 34.9176 19.1864 35.3376C19.1864 35.7576 18.9314 35.9676 18.4214 35.9676H13.5014C13.2664 35.9676 13.1089 36.0076 13.0289 36.0876C12.9539 36.1676 12.9164 36.3326 12.9164 36.5826V43.8126C12.9164 44.2926 12.7064 44.5326 12.2864 44.5326ZM21.2373 44.5326C20.8173 44.5326 20.6073 44.3026 20.6073 43.8426V35.3826C20.6073 34.8826 20.8073 34.6326 21.2073 34.6326H24.0723C25.3623 34.6326 26.2923 34.8201 26.8623 35.1951C27.4323 35.5701 27.7173 36.1826 27.7173 37.0326C27.7173 37.8576 27.4673 38.4926 26.9673 38.9376C26.4723 39.3776 25.7473 39.5976 24.7923 39.5976H21.8673V43.8426C21.8673 44.3026 21.6573 44.5326 21.2373 44.5326ZM21.8673 38.3376H24.0723C24.6223 38.3376 25.0723 38.3151 25.4223 38.2701C25.7773 38.2251 26.0373 38.1151 26.2023 37.9401C26.3723 37.7601 26.4573 37.4726 26.4573 37.0776C26.4573 36.7576 26.3898 36.5126 26.2548 36.3426C26.1248 36.1726 25.8873 36.0551 25.5423 35.9901C25.1973 35.9251 24.7073 35.8926 24.0723 35.8926H21.8673V38.3376ZM29.9084 44.5326C29.5084 44.5326 29.3084 44.2876 29.3084 43.7976V35.3976C29.3084 34.9376 29.5184 34.7076 29.9384 34.7076C30.3584 34.7076 30.5684 34.9326 30.5684 35.3826V37.1076H32.7734C33.4734 37.1076 34.0984 37.2701 34.6484 37.5951C35.1984 37.9201 35.6309 38.3626 35.9459 38.9226C36.2609 39.4826 36.4184 40.1176 36.4184 40.8276C36.4184 41.5376 36.2609 42.1726 35.9459 42.7326C35.6309 43.2876 35.1984 43.7276 34.6484 44.0526C34.0984 44.3726 33.4734 44.5326 32.7734 44.5326H29.9084ZM30.5684 43.2726H32.7734C33.2534 43.2726 33.6709 43.1726 34.0259 42.9726C34.3859 42.7726 34.6634 42.4901 34.8584 42.1251C35.0584 41.7601 35.1584 41.3301 35.1584 40.8351C35.1584 40.3451 35.0584 39.9151 34.8584 39.5451C34.6584 39.1701 34.3784 38.8801 34.0184 38.6751C33.6634 38.4701 33.2484 38.3676 32.7734 38.3676H30.5684V43.2726ZM37.4684 44.5326C37.0484 44.5326 36.8384 44.3026 36.8384 43.8426V35.3076C36.8384 34.8376 37.0484 34.6026 37.4684 34.6026C37.8884 34.6026 38.0984 34.8376 38.0984 35.3076V43.8426C38.0984 44.3026 37.8884 44.5326 37.4684 44.5326Z" fill="white"/>
<circle cx="45.9382" cy="38.8376" r="3.5" fill="white"/>
<path d="M54.2232 44.5326C54.0382 44.5326 53.8882 44.4701 53.7732 44.3451C53.6632 44.2201 53.6082 44.0526 53.6082 43.8426V35.7876C53.6082 35.5826 53.6657 35.4101 53.7807 35.2701C53.8957 35.1251 54.0582 35.0526 54.2682 35.0526C54.6682 35.0526 54.8682 35.2976 54.8682 35.7876V39.2676H56.0682C56.2032 39.2676 56.3557 39.2001 56.5257 39.0651C56.6957 38.9251 56.8957 38.7001 57.1257 38.3901C57.3557 38.0751 57.6282 37.6526 57.9432 37.1226C58.0482 36.9476 58.1757 36.7426 58.3257 36.5076C58.4757 36.2676 58.6482 36.0376 58.8432 35.8176C59.0432 35.5926 59.2682 35.4076 59.5182 35.2626C59.7732 35.1126 60.0532 35.0376 60.3582 35.0376C60.8782 35.0376 61.1382 35.2626 61.1382 35.7126C61.1382 35.9526 61.0632 36.1026 60.9132 36.1626C60.7682 36.2226 60.5832 36.2676 60.3582 36.2976C60.1432 36.3276 59.9482 36.4501 59.7732 36.6651C59.6032 36.8751 59.3832 37.1976 59.1132 37.6326C58.8832 38.0076 58.6982 38.3076 58.5582 38.5326C58.4232 38.7576 58.3032 38.9451 58.1982 39.0951C58.0932 39.2451 57.9682 39.3926 57.8232 39.5376C57.6832 39.6776 57.4882 39.8526 57.2382 40.0626L57.2082 39.6726C57.5182 39.9226 57.7907 40.1851 58.0257 40.4601C58.2657 40.7301 58.4782 41.0001 58.6632 41.2701C58.8482 41.5401 59.0182 41.7976 59.1732 42.0426C59.4382 42.4476 59.6532 42.7451 59.8182 42.9351C59.9882 43.1201 60.1732 43.2326 60.3732 43.2726C60.4482 43.2876 60.5457 43.3076 60.6657 43.3326C60.7907 43.3526 60.9007 43.4051 60.9957 43.4901C61.0907 43.5751 61.1382 43.7176 61.1382 43.9176C61.1382 44.3276 60.8932 44.5326 60.4032 44.5326C60.0382 44.5326 59.6607 44.4126 59.2707 44.1726C58.8857 43.9276 58.5132 43.5626 58.1532 43.0776C58.0732 42.9626 57.9507 42.7876 57.7857 42.5526C57.6257 42.3126 57.4782 42.0926 57.3432 41.8926C57.0382 41.4326 56.7757 41.0901 56.5557 40.8651C56.3407 40.6401 56.1282 40.5276 55.9182 40.5276H54.8682V43.8426C54.8682 44.0426 54.8082 44.2076 54.6882 44.3376C54.5732 44.4676 54.4182 44.5326 54.2232 44.5326ZM66.4214 44.5626C65.6314 44.5626 64.9464 44.4126 64.3664 44.1126C63.7864 43.8126 63.3389 43.3876 63.0239 42.8376C62.7089 42.2876 62.5514 41.6376 62.5514 40.8876V38.2476C62.5514 37.4976 62.7089 36.8476 63.0239 36.2976C63.3389 35.7476 63.7864 35.3226 64.3664 35.0226C64.9464 34.7226 65.6314 34.5726 66.4214 34.5726C67.2064 34.5726 67.8889 34.7251 68.4689 35.0301C69.0489 35.3301 69.4964 35.7551 69.8114 36.3051C70.1314 36.8551 70.2914 37.5026 70.2914 38.2476V40.8876C70.2914 41.6326 70.1314 42.2801 69.8114 42.8301C69.4964 43.3801 69.0489 43.8076 68.4689 44.1126C67.8889 44.4126 67.2064 44.5626 66.4214 44.5626ZM66.4214 43.3026C67.2714 43.3026 67.9189 43.0926 68.3639 42.6726C68.8089 42.2476 69.0314 41.6376 69.0314 40.8426V38.2926C69.0314 37.4676 68.8064 36.8526 68.3564 36.4476C67.9064 36.0376 67.2614 35.8326 66.4214 35.8326C65.5764 35.8326 64.9289 36.0426 64.4789 36.4626C64.0339 36.8826 63.8114 37.4926 63.8114 38.2926V40.8426C63.8114 41.6376 64.0339 42.2476 64.4789 42.6726C64.9289 43.0926 65.5764 43.3026 66.4214 43.3026ZM72.9589 44.5326C72.5389 44.5326 72.3289 44.2926 72.3289 43.8126V35.3376C72.3289 34.8476 72.5289 34.6026 72.9289 34.6026C73.1739 34.6026 73.3889 34.7301 73.5739 34.9851L76.3489 38.8701L79.1389 34.9851C79.3189 34.7301 79.5289 34.6026 79.7689 34.6026C80.1789 34.6026 80.3839 34.8476 80.3839 35.3376V43.8126C80.3839 44.2926 80.1739 44.5326 79.7539 44.5326C79.3339 44.5326 79.1239 44.2776 79.1239 43.7676V36.7776L76.8964 39.9426C76.8114 40.0676 76.7289 40.1501 76.6489 40.1901C76.5689 40.2251 76.4739 40.2426 76.3639 40.2426C76.2489 40.2426 76.1489 40.2251 76.0639 40.1901C75.9839 40.1501 75.9014 40.0676 75.8164 39.9426L73.5889 36.7776V43.7676C73.5889 44.2776 73.3789 44.5326 72.9589 44.5326ZM83.3443 44.5326C82.9343 44.5326 82.7293 44.2926 82.7293 43.8126V35.3376C82.7293 34.8476 82.9393 34.6026 83.3593 34.6026C83.7793 34.6026 83.9893 34.8626 83.9893 35.3826V42.2901L89.2243 34.9851C89.4143 34.7301 89.6293 34.6026 89.8693 34.6026C90.2693 34.6026 90.4693 34.8476 90.4693 35.3376V43.8126C90.4693 44.2926 90.2593 44.5326 89.8393 44.5326C89.4193 44.5326 89.2093 44.3076 89.2093 43.8576V36.8601L84.0343 44.1201C83.9143 44.2901 83.8093 44.4001 83.7193 44.4501C83.6343 44.5051 83.5093 44.5326 83.3443 44.5326ZM93.4225 44.5326C93.2375 44.5326 93.0875 44.4701 92.9725 44.3451C92.8625 44.2201 92.8075 44.0526 92.8075 43.8426V35.7876C92.8075 35.5826 92.865 35.4101 92.98 35.2701C93.095 35.1251 93.2575 35.0526 93.4675 35.0526C93.8675 35.0526 94.0675 35.2976 94.0675 35.7876V39.2676H95.2675C95.4025 39.2676 95.555 39.2001 95.725 39.0651C95.895 38.9251 96.095 38.7001 96.325 38.3901C96.555 38.0751 96.8275 37.6526 97.1425 37.1226C97.2475 36.9476 97.375 36.7426 97.525 36.5076C97.675 36.2676 97.8475 36.0376 98.0425 35.8176C98.2425 35.5926 98.4675 35.4076 98.7175 35.2626C98.9725 35.1126 99.2525 35.0376 99.5575 35.0376C100.077 35.0376 100.337 35.2626 100.337 35.7126C100.337 35.9526 100.262 36.1026 100.112 36.1626C99.9675 36.2226 99.7825 36.2676 99.5575 36.2976C99.3425 36.3276 99.1475 36.4501 98.9725 36.6651C98.8025 36.8751 98.5825 37.1976 98.3125 37.6326C98.0825 38.0076 97.8975 38.3076 97.7575 38.5326C97.6225 38.7576 97.5025 38.9451 97.3975 39.0951C97.2925 39.2451 97.1675 39.3926 97.0225 39.5376C96.8825 39.6776 96.6875 39.8526 96.4375 40.0626L96.4075 39.6726C96.7175 39.9226 96.99 40.1851 97.225 40.4601C97.465 40.7301 97.6775 41.0001 97.8625 41.2701C98.0475 41.5401 98.2175 41.7976 98.3725 42.0426C98.6375 42.4476 98.8525 42.7451 99.0175 42.9351C99.1875 43.1201 99.3725 43.2326 99.5725 43.2726C99.6475 43.2876 99.745 43.3076 99.865 43.3326C99.99 43.3526 100.1 43.4051 100.195 43.4901C100.29 43.5751 100.337 43.7176 100.337 43.9176C100.337 44.3276 100.092 44.5326 99.6025 44.5326C99.2375 44.5326 98.86 44.4126 98.47 44.1726C98.085 43.9276 97.7125 43.5626 97.3525 43.0776C97.2725 42.9626 97.15 42.7876 96.985 42.5526C96.825 42.3126 96.6775 42.0926 96.5425 41.8926C96.2375 41.4326 95.975 41.0901 95.755 40.8651C95.54 40.6401 95.3275 40.5276 95.1175 40.5276H94.0675V43.8426C94.0675 44.0426 94.0075 44.2076 93.8875 44.3376C93.7725 44.4676 93.6175 44.5326 93.4225 44.5326ZM105.741 44.4276C104.776 44.4276 104.011 44.3376 103.446 44.1576C102.881 43.9776 102.473 43.6801 102.223 43.2651C101.978 42.8501 101.856 42.2876 101.856 41.5776V37.5576C101.856 36.8576 101.973 36.3001 102.208 35.8851C102.443 35.4701 102.826 35.1701 103.356 34.9851C103.886 34.8001 104.591 34.7076 105.471 34.7076H107.856C108.251 34.7076 108.576 34.7776 108.831 34.9176C109.091 35.0526 109.283 35.2501 109.408 35.5101C109.533 35.7701 109.596 36.0826 109.596 36.4476C109.596 37.0776 109.386 37.3926 108.966 37.3926C108.741 37.3926 108.583 37.3226 108.493 37.1826C108.403 37.0376 108.351 36.8426 108.336 36.5976C108.321 36.3626 108.286 36.2001 108.231 36.1101C108.181 36.0151 108.021 35.9676 107.751 35.9676H105.471C104.811 35.9676 104.311 36.0076 103.971 36.0876C103.636 36.1676 103.408 36.3251 103.288 36.5601C103.173 36.7901 103.116 37.1326 103.116 37.5876V41.5476C103.116 42.0076 103.178 42.3551 103.303 42.5901C103.428 42.8201 103.678 42.9751 104.053 43.0551C104.428 43.1301 104.991 43.1676 105.741 43.1676H107.751C108.021 43.1676 108.181 43.1201 108.231 43.0251C108.286 42.9301 108.321 42.7676 108.336 42.5376C108.361 42.2526 108.421 42.0501 108.516 41.9301C108.616 41.8051 108.766 41.7426 108.966 41.7426C109.186 41.7476 109.346 41.8276 109.446 41.9826C109.546 42.1326 109.596 42.3726 109.596 42.7026C109.596 43.0676 109.533 43.3801 109.408 43.6401C109.283 43.8951 109.091 44.0901 108.831 44.2251C108.576 44.3601 108.251 44.4276 107.856 44.4276H105.741ZM112.114 44.5326C111.714 44.5326 111.514 44.2876 111.514 43.7976V35.3976C111.514 34.9376 111.724 34.7076 112.144 34.7076C112.564 34.7076 112.774 34.9326 112.774 35.3826V37.1076H114.979C115.679 37.1076 116.304 37.2701 116.854 37.5951C117.404 37.9201 117.836 38.3626 118.151 38.9226C118.466 39.4826 118.624 40.1176 118.624 40.8276C118.624 41.5376 118.466 42.1726 118.151 42.7326C117.836 43.2876 117.404 43.7276 116.854 44.0526C116.304 44.3726 115.679 44.5326 114.979 44.5326H112.114ZM112.774 43.2726H114.979C115.459 43.2726 115.876 43.1726 116.231 42.9726C116.591 42.7726 116.869 42.4901 117.064 42.1251C117.264 41.7601 117.364 41.3301 117.364 40.8351C117.364 40.3451 117.264 39.9151 117.064 39.5451C116.864 39.1701 116.584 38.8801 116.224 38.6751C115.869 38.4701 115.454 38.3676 114.979 38.3676H112.774V43.2726ZM119.674 44.5326C119.254 44.5326 119.044 44.3026 119.044 43.8426V35.3076C119.044 34.8376 119.254 34.6026 119.674 34.6026C120.094 34.6026 120.304 34.8376 120.304 35.3076V43.8426C120.304 44.3026 120.094 44.5326 119.674 44.5326Z" fill="white"/>
</svg>
