<svg width="16" height="19" viewBox="0 0 16 19" fill="none" xmlns="http://www.w3.org/2000/svg">
<g clip-path="url(#clip0_201_74)">
<path fill-rule="evenodd" clip-rule="evenodd" d="M3.48548 4.82258C3.48548 7.20968 5.51037 9.17742 7.96681 9.17742C10.4232 9.17742 12.4481 7.24194 12.4481 4.85484C12.4481 2.46774 10.4232 0.5 7.96681 0.5C5.51037 0.5 3.48548 2.43548 3.48548 4.82258ZM4.91286 4.82258C4.91286 3.17742 6.27386 1.85484 7.96681 1.85484C9.65975 1.85484 11.0207 3.20968 11.0207 4.82258C11.0207 6.46774 9.65975 7.79032 7.96681 7.79032C6.27386 7.79032 4.91286 6.46774 4.91286 4.82258ZM0.697095 18.5C0.298755 18.5 0 18.1774 0 17.8226C0 13.5323 3.58506 10.0484 8 10.0484C12.3817 10.0484 15.9668 13.5 16 17.7581V17.8226C15.9668 18.2097 15.6349 18.5 15.2365 18.5H0.697095ZM7.9668 11.4355C11.3527 11.4355 14.1411 13.9516 14.5062 17.1452H1.42739C1.79253 13.9516 4.58091 11.4355 7.9668 11.4355Z" fill="white"/>
</g>
<defs>
<clipPath id="clip0_201_74">
<rect width="16" height="18" fill="white" transform="translate(0 0.5)"/>
</clipPath>
</defs>
</svg>
