<svg width="140" height="70" viewBox="0 0 140 70" fill="none" xmlns="http://www.w3.org/2000/svg">
<rect x="0.5" y="0.5" width="138.266" height="68.395" rx="9.5" fill="white"/>
<path d="M28.57 11.598C28.57 11.598 28.281 13.172 27.943 13.566C27.603 13.958 27.06 15.646 23.445 15.737C20.224 15.815 18.989 13.721 18.989 13.721C18.989 13.721 17.837 12.227 17.601 10.002C17.601 10.002 15.154 10.677 14.435 11.022C14.435 11.022 16.216 12.592 15.27 18.565C15.27 18.565 15.726 19.576 16.073 22.3L16.703 26.489C16.703 26.489 16.354 27.397 16.284 29.074C16.284 29.074 14.887 30.821 12.233 43.947C12.233 43.947 10.558 55.121 10 56.799C10 56.799 10.559 57.285 11.885 57.496C13.212 57.704 15.097 57.427 15.377 57.983V58.471C15.377 58.471 18.799 58.963 19.637 58.471C19.637 58.471 21.104 58.207 21.802 58.688V59.241C21.802 59.241 25.991 59.729 26.133 58.965C26.133 58.965 27.948 58.544 28.296 58.681L32.437 58.281V58.039L36.083 57.442C36.083 57.442 34.286 46.692 33.499 41.346C33.499 41.346 32.243 32.86 30.099 28.619C30.099 28.619 30.252 28.251 29.912 27.833C29.912 27.833 29.679 26.366 29.782 25.92L30.645 21.025C30.645 21.025 31.223 18.993 31.481 18.812C31.481 18.812 30.475 14.179 32 10.667L28.517 10C28.516 10.002 28.71 10.949 28.57 11.598Z" fill="#43F14A" stroke="#494949" stroke-width="1.5" stroke-miterlimit="10" stroke-linecap="round" stroke-linejoin="round"/>
<path d="M29.7621 27.05L29.0471 27.312L28.6221 27.129L29.7621 26.489V27.05Z" stroke="#494949" stroke-width="1.5" stroke-miterlimit="10" stroke-linecap="round" stroke-linejoin="round"/>
<path d="M15.7639 30.169C16.1109 29.295 16.2859 29.074 16.2859 29.074C16.3569 27.397 16.7049 26.489 16.7049 26.489C16.7049 26.489 25.9599 26.524 27.3179 27.311C27.3179 27.311 28.1829 26.786 29.0469 27.311L30.0409 38.677L25.3309 41.659L26.0759 35.289C25.6029 35.5 21.4739 36.043 21.4739 36.043L23.6889 30.168L15.7639 30.169Z" fill="#B7B7B7" stroke="#494949" stroke-width="1.5" stroke-miterlimit="10" stroke-linecap="round" stroke-linejoin="round"/>
<path d="M23.6891 30.169L21.4741 36.044C21.4741 36.044 25.7711 35.45 26.2441 35.238L27.3181 27.311C25.5911 27.312 23.6891 30.169 23.6891 30.169Z" fill="#DDCC36" stroke="#494949" stroke-width="1.5" stroke-miterlimit="10" stroke-linecap="round" stroke-linejoin="round"/>
<path d="M27.3181 27.312C27.3181 27.312 28.1851 26.787 29.0471 27.312L30.0411 38.679L25.3311 41.66L27.3181 27.312Z" fill="#DDCC36" stroke="#494949" stroke-width="1.5" stroke-miterlimit="10" stroke-linecap="round" stroke-linejoin="round"/>
<path d="M27.3179 27.312C25.9609 26.525 16.7059 26.49 16.7059 26.49C16.7059 26.49 16.3569 27.398 16.2869 29.075C16.2869 29.075 16.1109 29.296 15.7649 30.17H23.6909C23.6889 30.169 25.5909 27.312 27.3179 27.312Z" fill="#DDCC36" stroke="#494949" stroke-width="1.5" stroke-miterlimit="10" stroke-linecap="round" stroke-linejoin="round"/>
<path d="M21.105 26.588C22.581 26.647 24.16 26.738 25.378 26.884C25.311 23.609 25.649 15.406 25.649 15.406C25.082 15.588 24.362 15.714 23.445 15.736C22.502 15.758 21.729 15.596 21.108 15.353C21.108 15.353 21.311 24.534 21.105 26.588Z" fill="#DDCC36" stroke="#494949" stroke-width="1.5" stroke-miterlimit="10" stroke-linecap="round" stroke-linejoin="round"/>
<path d="M23.531 21.111C23.531 21.249 23.419 21.362 23.281 21.362C23.144 21.362 23.031 21.249 23.031 21.111C23.031 20.975 23.144 20.862 23.281 20.862C23.419 20.862 23.531 20.976 23.531 21.111Z" stroke="#494949" stroke-width="1.5" stroke-miterlimit="10" stroke-linecap="round" stroke-linejoin="round"/>
<path d="M23.282 24.873C23.4201 24.873 23.532 24.7611 23.532 24.623C23.532 24.4849 23.4201 24.373 23.282 24.373C23.1439 24.373 23.032 24.4849 23.032 24.623C23.032 24.7611 23.1439 24.873 23.282 24.873Z" stroke="#494949" stroke-width="1.5" stroke-miterlimit="10" stroke-linecap="round" stroke-linejoin="round"/>
<path d="M23.531 18.089C23.531 18.228 23.42 18.341 23.281 18.341C23.143 18.341 23.031 18.228 23.031 18.089C23.031 17.954 23.143 17.839 23.281 17.839C23.42 17.839 23.531 17.954 23.531 18.089Z" stroke="#494949" stroke-width="1.5" stroke-miterlimit="10" stroke-linecap="round" stroke-linejoin="round"/>
<path d="M21.105 26.588C21.311 24.534 21.108 15.354 21.108 15.354C19.608 14.767 18.99 13.721 18.99 13.721C18.99 13.721 17.838 12.227 17.602 10.002C17.602 10.002 15.155 10.677 14.436 11.022C14.436 11.022 16.217 12.592 15.271 18.565C15.271 18.565 15.727 19.576 16.074 22.3L16.704 26.489C16.706 26.489 18.762 26.496 21.105 26.588Z" fill="#43F14A" stroke="#494949" stroke-width="1.5" stroke-miterlimit="10" stroke-linecap="round" stroke-linejoin="round"/>
<path d="M29.6969 26.489L28.5559 27.129V27.13C27.8549 26.946 27.2539 27.312 27.2539 27.312C26.9439 27.133 26.2329 26.994 25.3139 26.884C25.2459 23.609 25.5849 15.406 25.5849 15.406C27.2569 14.874 27.6239 13.857 27.8769 13.565C28.2169 13.171 28.5049 11.597 28.5049 11.597C28.6459 10.949 28.4529 10.001 28.4529 10.001L31.9339 10.668C30.4119 14.18 31.4159 18.813 31.4159 18.813C31.1559 18.994 30.5799 21.026 30.5799 21.026L29.7149 25.921C29.6859 26.067 29.6799 26.213 29.6969 26.489Z" fill="#43F14A" stroke="#494949" stroke-width="1.5" stroke-miterlimit="10" stroke-linecap="round" stroke-linejoin="round"/>
<path d="M15.3779 58.471C15.3779 58.471 18.7999 58.963 19.6379 58.471C19.6379 58.471 21.1059 58.209 21.8029 58.688C21.8029 58.688 20.3189 53.41 21.8029 41.241V30.169H18.0779L17.0019 36.948C16.2689 43.856 15.3779 58.471 15.3779 58.471ZM15.3779 58.471V57.983" stroke="#494949" stroke-width="1.5" stroke-miterlimit="10" stroke-linecap="round" stroke-linejoin="round"/>
<path d="M18.079 30.169L17.003 36.948C16.27 43.856 15.379 58.471 15.379 58.471V57.983C15.099 57.425 13.213 57.704 11.887 57.496C10.561 57.285 10.002 56.799 10.002 56.799C10.561 55.121 12.235 43.947 12.235 43.947C13.946 35.485 15.134 31.753 15.763 30.169H18.079Z" stroke="#494949" stroke-width="1.5" stroke-miterlimit="10" stroke-linecap="round" stroke-linejoin="round"/>
<path d="M23.689 30.169L21.803 35.172V30.169H23.689Z" fill="#B7B7B7" stroke="#494949" stroke-width="1.5" stroke-miterlimit="10" stroke-linecap="round" stroke-linejoin="round"/>
<path d="M26.1341 58.965C25.9921 59.73 21.8031 59.241 21.8031 59.241V58.688C21.8031 58.688 20.3191 53.41 21.8031 41.241L21.8441 35.992C22.8971 35.843 25.8581 35.411 26.2441 35.237L25.3311 41.66L26.1341 41.151L26.1451 41.17C26.1451 41.17 26.6221 55.729 26.1341 58.965Z" fill="#43F14A" stroke="#494949" stroke-width="1.5" stroke-miterlimit="10" stroke-linecap="round" stroke-linejoin="round"/>
<path d="M32.438 58.038V58.278L28.297 58.678C27.949 58.542 26.134 58.963 26.134 58.963C26.622 55.729 26.145 41.168 26.145 41.168L29.6 38.956C29.909 41.293 31.001 43.364 31.1 46.146C31.1 46.149 31.371 55.02 32.438 58.038Z" fill="#43F14A" stroke="#494949" stroke-width="1.5" stroke-miterlimit="10" stroke-linecap="round" stroke-linejoin="round"/>
<path d="M28.9951 26.884L30.0421 38.679L29.6001 38.958C29.9101 41.295 31.0021 43.366 31.1001 46.149C31.1001 46.149 31.3721 55.02 32.4381 58.038L36.0851 57.44C36.0851 57.44 34.2881 46.692 33.5011 41.344C33.5011 41.344 32.2451 32.859 30.1001 28.618C30.1001 28.618 30.2541 28.25 29.9141 27.832C29.9141 27.832 29.7931 27.074 29.7641 26.481L28.9951 26.884Z" fill="#43F14A" stroke="#494949" stroke-width="1.5" stroke-miterlimit="10" stroke-linecap="round" stroke-linejoin="round"/>
<path d="M48.935 24.7995C48.827 24.7995 48.745 24.7655 48.689 24.6975C48.633 24.6335 48.605 24.5395 48.605 24.4155V17.6775H46.781C46.649 17.6775 46.549 17.6515 46.481 17.5995C46.413 17.5435 46.379 17.4635 46.379 17.3595C46.379 17.2595 46.413 17.1835 46.481 17.1315C46.549 17.0755 46.649 17.0475 46.781 17.0475H51.083C51.347 17.0475 51.479 17.1515 51.479 17.3595C51.479 17.5715 51.347 17.6775 51.083 17.6775H49.271V24.4155C49.271 24.5395 49.241 24.6335 49.181 24.6975C49.121 24.7655 49.039 24.7995 48.935 24.7995ZM57.2103 24.7995C57.1063 24.7995 57.0343 24.7615 56.9943 24.6855C56.9543 24.6095 56.9303 24.4795 56.9223 24.2955C56.9183 24.1075 56.9143 23.8475 56.9103 23.5155L57.0063 23.7435C56.7823 24.0795 56.4943 24.3255 56.1423 24.4815C55.7903 24.6375 55.3723 24.7155 54.8883 24.7155H53.7723C53.3923 24.7155 53.0823 24.5835 52.8423 24.3195C52.6063 24.0555 52.4883 23.6475 52.4883 23.0955C52.4883 22.6555 52.5623 22.3075 52.7103 22.0515C52.8583 21.7955 53.0583 21.6035 53.3103 21.4755C53.5663 21.3475 53.8503 21.2635 54.1623 21.2235C54.4783 21.1835 54.8023 21.1635 55.1343 21.1635H57.1803L56.8983 21.4395V20.4675C56.8983 20.2115 56.8503 20.0335 56.7543 19.9335C56.6623 19.8295 56.4903 19.7775 56.2383 19.7775H54.5463C54.2063 19.7775 53.9303 19.8035 53.7183 19.8555C53.5103 19.9035 53.3583 19.9795 53.2623 20.0835C53.1663 20.1875 53.1183 20.3215 53.1183 20.4855C53.1143 20.6135 53.0923 20.7115 53.0523 20.7795C53.0163 20.8475 52.9323 20.8815 52.8003 20.8815C52.5923 20.8815 52.4883 20.7315 52.4883 20.4315C52.4883 20.0035 52.6643 19.6835 53.0163 19.4715C53.3723 19.2555 53.8543 19.1475 54.4623 19.1475H56.3223C56.7823 19.1475 57.0983 19.2595 57.2703 19.4835C57.4423 19.7035 57.5283 20.0995 57.5283 20.6715V24.3855C57.5283 24.6615 57.4223 24.7995 57.2103 24.7995ZM53.7843 24.0975H54.8883C55.6243 24.0975 56.1463 23.8895 56.4543 23.4735C56.7663 23.0535 56.9143 22.4335 56.8983 21.6135L57.0843 21.7815H55.1343C54.6903 21.7815 54.3183 21.8115 54.0183 21.8715C53.7183 21.9275 53.4923 22.0455 53.3403 22.2255C53.1923 22.4055 53.1183 22.6775 53.1183 23.0415C53.1183 23.4175 53.1843 23.6875 53.3163 23.8515C53.4523 24.0155 53.6083 24.0975 53.7843 24.0975ZM61.0962 24.7995C60.8762 24.7995 60.7662 24.6735 60.7662 24.4215V19.7775H58.9422C58.6742 19.7775 58.5402 19.6715 58.5402 19.4595C58.5402 19.2515 58.6742 19.1475 58.9422 19.1475H63.2442C63.5082 19.1475 63.6402 19.2515 63.6402 19.4595C63.6402 19.6715 63.5082 19.7775 63.2442 19.7775H61.4262V24.4215C61.4262 24.5415 61.3962 24.6335 61.3362 24.6975C61.2802 24.7655 61.2002 24.7995 61.0962 24.7995ZM69.2454 24.7995C69.1414 24.7995 69.0694 24.7615 69.0294 24.6855C68.9894 24.6095 68.9654 24.4795 68.9574 24.2955C68.9534 24.1075 68.9494 23.8475 68.9454 23.5155L69.0414 23.7435C68.8174 24.0795 68.5294 24.3255 68.1774 24.4815C67.8254 24.6375 67.4074 24.7155 66.9234 24.7155H65.8074C65.4274 24.7155 65.1174 24.5835 64.8774 24.3195C64.6414 24.0555 64.5234 23.6475 64.5234 23.0955C64.5234 22.6555 64.5974 22.3075 64.7454 22.0515C64.8934 21.7955 65.0934 21.6035 65.3454 21.4755C65.6014 21.3475 65.8854 21.2635 66.1974 21.2235C66.5134 21.1835 66.8374 21.1635 67.1694 21.1635H69.2154L68.9334 21.4395V20.4675C68.9334 20.2115 68.8854 20.0335 68.7894 19.9335C68.6974 19.8295 68.5254 19.7775 68.2734 19.7775H66.5814C66.2414 19.7775 65.9654 19.8035 65.7534 19.8555C65.5454 19.9035 65.3934 19.9795 65.2974 20.0835C65.2014 20.1875 65.1534 20.3215 65.1534 20.4855C65.1494 20.6135 65.1274 20.7115 65.0874 20.7795C65.0514 20.8475 64.9674 20.8815 64.8354 20.8815C64.6274 20.8815 64.5234 20.7315 64.5234 20.4315C64.5234 20.0035 64.6994 19.6835 65.0514 19.4715C65.4074 19.2555 65.8894 19.1475 66.4974 19.1475H68.3574C68.8174 19.1475 69.1334 19.2595 69.3054 19.4835C69.4774 19.7035 69.5634 20.0995 69.5634 20.6715V24.3855C69.5634 24.6615 69.4574 24.7995 69.2454 24.7995ZM65.8194 24.0975H66.9234C67.6594 24.0975 68.1814 23.8895 68.4894 23.4735C68.8014 23.0535 68.9494 22.4335 68.9334 21.6135L69.1194 21.7815H67.1694C66.7254 21.7815 66.3534 21.8115 66.0534 21.8715C65.7534 21.9275 65.5274 22.0455 65.3754 22.2255C65.2274 22.4055 65.1534 22.6775 65.1534 23.0415C65.1534 23.4175 65.2194 23.6875 65.3514 23.8515C65.4874 24.0155 65.6434 24.0975 65.8194 24.0975ZM71.5894 26.8995C71.3854 26.8995 71.2834 26.7575 71.2834 26.4735V19.4775C71.2834 19.2015 71.3894 19.0635 71.6014 19.0635C71.7094 19.0635 71.7874 19.0995 71.8354 19.1715C71.8874 19.2435 71.9134 19.3595 71.9134 19.5195V20.2215L71.8054 20.0775C72.0334 19.7615 72.3254 19.5275 72.6814 19.3755C73.0374 19.2235 73.4554 19.1475 73.9354 19.1475H74.2834C74.8954 19.1475 75.3954 19.2095 75.7834 19.3335C76.1714 19.4535 76.4574 19.6675 76.6414 19.9755C76.8254 20.2835 76.9174 20.7155 76.9174 21.2715V22.5855C76.9174 23.1455 76.8254 23.5795 76.6414 23.8875C76.4574 24.1955 76.1714 24.4115 75.7834 24.5355C75.3954 24.6555 74.8974 24.7155 74.2894 24.7155H71.9134V26.4735C71.9134 26.7575 71.8054 26.8995 71.5894 26.8995ZM71.9134 24.0855H74.2894C74.8134 24.0855 75.2194 24.0495 75.5074 23.9775C75.7954 23.9015 75.9974 23.7555 76.1134 23.5395C76.2294 23.3195 76.2874 22.9995 76.2874 22.5795V21.2835C76.2874 20.8395 76.2254 20.5115 76.1014 20.2995C75.9774 20.0835 75.7694 19.9435 75.4774 19.8795C75.1854 19.8115 74.7874 19.7775 74.2834 19.7775H73.9354C73.2714 19.7775 72.7674 19.9595 72.4234 20.3235C72.0834 20.6875 71.9134 21.2175 71.9134 21.9135V24.0855ZM81.0156 24.7155C80.3996 24.7155 79.8976 24.6555 79.5096 24.5355C79.1216 24.4115 78.8336 24.1955 78.6456 23.8875C78.4616 23.5795 78.3696 23.1455 78.3696 22.5855V21.2715C78.3696 20.7155 78.4616 20.2835 78.6456 19.9755C78.8336 19.6675 79.1216 19.4535 79.5096 19.3335C79.8976 19.2095 80.3996 19.1475 81.0156 19.1475H82.7436C83.0596 19.1475 83.3016 19.2075 83.4696 19.3275C83.6376 19.4435 83.7536 19.5955 83.8176 19.7835C83.8816 19.9715 83.9136 20.1695 83.9136 20.3775C83.9136 20.5695 83.8876 20.7075 83.8356 20.7915C83.7876 20.8755 83.7076 20.9175 83.5956 20.9175C83.4716 20.9175 83.3876 20.8695 83.3436 20.7735C83.3036 20.6775 83.2836 20.5775 83.2836 20.4735C83.2796 20.2655 83.2396 20.0975 83.1636 19.9695C83.0916 19.8415 82.9116 19.7775 82.6236 19.7775H81.0156C80.4996 19.7775 80.0936 19.8115 79.7976 19.8795C79.5056 19.9435 79.2996 20.0835 79.1796 20.2995C79.0596 20.5155 78.9996 20.8435 78.9996 21.2835V22.5795C78.9996 23.0035 79.0576 23.3235 79.1736 23.5395C79.2896 23.7555 79.4936 23.9015 79.7856 23.9775C80.0816 24.0495 80.4916 24.0855 81.0156 24.0855H82.6236C82.9156 24.0855 83.0956 24.0255 83.1636 23.9055C83.2316 23.7855 83.2716 23.6135 83.2836 23.3895C83.2916 23.2295 83.3236 23.1155 83.3796 23.0475C83.4356 22.9795 83.5096 22.9455 83.6016 22.9455C83.7056 22.9455 83.7836 22.9855 83.8356 23.0655C83.8876 23.1455 83.9136 23.2815 83.9136 23.4735C83.9136 23.7095 83.8776 23.9215 83.8056 24.1095C83.7376 24.2975 83.6156 24.4455 83.4396 24.5535C83.2636 24.6615 83.0196 24.7155 82.7076 24.7155H81.0156ZM85.7808 24.7995C85.6808 24.7995 85.6028 24.7655 85.5468 24.6975C85.4948 24.6335 85.4688 24.5395 85.4688 24.4155V19.4535C85.4688 19.3255 85.4948 19.2295 85.5468 19.1655C85.6028 19.0975 85.6828 19.0635 85.7868 19.0635C85.8868 19.0635 85.9628 19.0975 86.0148 19.1655C86.0708 19.2295 86.0988 19.3255 86.0988 19.4535V21.6075H87.3828C87.5268 21.6075 87.6688 21.5255 87.8088 21.3615C87.9488 21.1935 88.1008 20.9755 88.2648 20.7075C88.4008 20.4875 88.5588 20.2455 88.7388 19.9815C88.9188 19.7175 89.1588 19.4955 89.4588 19.3155C89.7428 19.1395 90.0488 19.0515 90.3768 19.0515C90.5288 19.0515 90.6468 19.0795 90.7308 19.1355C90.8148 19.1875 90.8568 19.2635 90.8568 19.3635C90.8568 19.4955 90.8068 19.5815 90.7068 19.6215C90.6068 19.6615 90.5108 19.6815 90.4188 19.6815C90.1428 19.6935 89.9028 19.7875 89.6988 19.9635C89.4988 20.1355 89.3128 20.3535 89.1408 20.6175C88.9928 20.8575 88.8728 21.0515 88.7808 21.1995C88.6888 21.3435 88.6028 21.4635 88.5228 21.5595C88.4468 21.6555 88.3608 21.7535 88.2648 21.8535C88.6728 22.0175 88.9848 22.2235 89.2008 22.4715C89.4208 22.7155 89.5848 22.9755 89.6928 23.2515C89.8168 23.5595 89.9248 23.7855 90.0168 23.9295C90.1128 24.0735 90.2468 24.1535 90.4188 24.1695C90.5388 24.1735 90.6408 24.1975 90.7248 24.2415C90.8128 24.2815 90.8568 24.3595 90.8568 24.4755C90.8568 24.6915 90.7048 24.7995 90.4008 24.7995C90.1208 24.7995 89.8888 24.7215 89.7048 24.5655C89.5248 24.4095 89.3768 24.2135 89.2608 23.9775C89.1928 23.8495 89.1188 23.7015 89.0388 23.5335C88.9588 23.3615 88.8508 23.1895 88.7148 23.0175C88.5828 22.8415 88.4028 22.6875 88.1748 22.5555C87.8468 22.3435 87.3768 22.2375 86.7648 22.2375H86.0988V24.4215C86.0988 24.5415 86.0708 24.6335 86.0148 24.6975C85.9588 24.7655 85.8808 24.7995 85.7808 24.7995ZM96.6907 24.7995C96.5867 24.7995 96.5147 24.7615 96.4747 24.6855C96.4347 24.6095 96.4107 24.4795 96.4027 24.2955C96.3987 24.1075 96.3947 23.8475 96.3907 23.5155L96.4867 23.7435C96.2627 24.0795 95.9747 24.3255 95.6227 24.4815C95.2707 24.6375 94.8527 24.7155 94.3687 24.7155H93.2527C92.8727 24.7155 92.5627 24.5835 92.3227 24.3195C92.0867 24.0555 91.9687 23.6475 91.9687 23.0955C91.9687 22.6555 92.0427 22.3075 92.1907 22.0515C92.3387 21.7955 92.5387 21.6035 92.7907 21.4755C93.0467 21.3475 93.3307 21.2635 93.6427 21.2235C93.9587 21.1835 94.2827 21.1635 94.6147 21.1635H96.6607L96.3787 21.4395V20.4675C96.3787 20.2115 96.3307 20.0335 96.2347 19.9335C96.1427 19.8295 95.9707 19.7775 95.7187 19.7775H94.0267C93.6867 19.7775 93.4107 19.8035 93.1987 19.8555C92.9907 19.9035 92.8387 19.9795 92.7427 20.0835C92.6467 20.1875 92.5987 20.3215 92.5987 20.4855C92.5947 20.6135 92.5727 20.7115 92.5327 20.7795C92.4967 20.8475 92.4127 20.8815 92.2807 20.8815C92.0727 20.8815 91.9687 20.7315 91.9687 20.4315C91.9687 20.0035 92.1447 19.6835 92.4967 19.4715C92.8527 19.2555 93.3347 19.1475 93.9427 19.1475H95.8027C96.2627 19.1475 96.5787 19.2595 96.7507 19.4835C96.9227 19.7035 97.0087 20.0995 97.0087 20.6715V24.3855C97.0087 24.6615 96.9027 24.7995 96.6907 24.7995ZM93.2647 24.0975H94.3687C95.1047 24.0975 95.6267 23.8895 95.9347 23.4735C96.2467 23.0535 96.3947 22.4335 96.3787 21.6135L96.5647 21.7815H94.6147C94.1707 21.7815 93.7987 21.8115 93.4987 21.8715C93.1987 21.9275 92.9727 22.0455 92.8207 22.2255C92.6727 22.4055 92.5987 22.6775 92.5987 23.0415C92.5987 23.4175 92.6647 23.6875 92.7967 23.8515C92.9327 24.0155 93.0887 24.0975 93.2647 24.0975ZM98.5607 24.8115C98.2407 24.8115 98.0807 24.7055 98.0807 24.4935C98.0807 24.2855 98.2187 24.1815 98.4947 24.1815C98.7027 24.1815 98.8847 24.0995 99.0407 23.9355C99.1967 23.7715 99.3187 23.5395 99.4067 23.2395C99.4667 23.0275 99.5447 22.8415 99.6407 22.6815C99.7407 22.5175 99.8647 22.3695 100.013 22.2375C99.5887 22.1575 99.2847 22.0055 99.1007 21.7815C98.9167 21.5575 98.8247 21.2515 98.8247 20.8635C98.8247 20.3755 98.9087 20.0095 99.0767 19.7655C99.2487 19.5215 99.5247 19.3575 99.9047 19.2735C100.289 19.1895 100.803 19.1475 101.447 19.1475H103.247C103.343 19.1475 103.415 19.1835 103.463 19.2555C103.515 19.3235 103.541 19.4255 103.541 19.5615V24.4335C103.541 24.5495 103.513 24.6395 103.457 24.7035C103.401 24.7675 103.323 24.7995 103.223 24.7995C103.123 24.7995 103.045 24.7675 102.989 24.7035C102.937 24.6395 102.911 24.5495 102.911 24.4335V22.3335H101.453C101.161 22.3335 100.921 22.3695 100.733 22.4415C100.549 22.5095 100.401 22.6215 100.289 22.7775C100.177 22.9335 100.085 23.1415 100.013 23.4015C99.8967 23.8095 99.7007 24.1475 99.4247 24.4155C99.1527 24.6795 98.8647 24.8115 98.5607 24.8115ZM101.069 21.7035H102.911V19.7775H101.069C100.669 19.7775 100.351 19.7975 100.115 19.8375C99.8787 19.8775 99.7087 19.9655 99.6047 20.1015C99.5047 20.2375 99.4547 20.4495 99.4547 20.7375C99.4547 21.0295 99.5047 21.2455 99.6047 21.3855C99.7087 21.5215 99.8787 21.6095 100.115 21.6495C100.351 21.6855 100.669 21.7035 101.069 21.7035ZM49.457 38.7155C48.841 38.7155 48.339 38.6555 47.951 38.5355C47.563 38.4115 47.275 38.1955 47.087 37.8875C46.903 37.5795 46.811 37.1455 46.811 36.5855V35.2715C46.811 34.7155 46.903 34.2835 47.087 33.9755C47.275 33.6675 47.563 33.4535 47.951 33.3335C48.339 33.2095 48.841 33.1475 49.457 33.1475H49.805C50.417 33.1475 50.917 33.2095 51.305 33.3335C51.697 33.4535 51.985 33.6675 52.169 33.9755C52.353 34.2835 52.445 34.7155 52.445 35.2715V36.5855C52.445 37.1455 52.353 37.5795 52.169 37.8875C51.985 38.1955 51.697 38.4115 51.305 38.5355C50.917 38.6555 50.417 38.7155 49.805 38.7155H49.457ZM49.457 38.0855H49.805C50.329 38.0855 50.737 38.0495 51.029 37.9775C51.321 37.9015 51.525 37.7555 51.641 37.5395C51.757 37.3195 51.815 36.9995 51.815 36.5795V35.2835C51.815 34.8395 51.753 34.5115 51.629 34.2995C51.505 34.0835 51.297 33.9435 51.005 33.8795C50.713 33.8115 50.313 33.7775 49.805 33.7775H49.457C48.941 33.7775 48.535 33.8115 48.239 33.8795C47.947 33.9435 47.741 34.0835 47.621 34.2995C47.501 34.5155 47.441 34.8435 47.441 35.2835V36.5795C47.441 37.0035 47.499 37.3235 47.615 37.5395C47.731 37.7555 47.935 37.9015 48.227 37.9775C48.523 38.0495 48.933 38.0855 49.457 38.0855ZM53.6011 39.8195C53.3891 39.8195 53.2831 39.6775 53.2831 39.3935V38.7875C53.2831 38.3155 53.4951 38.0815 53.9191 38.0855H54.2851L53.9251 38.2355C54.7851 36.8595 55.2151 35.1635 55.2151 33.1475H58.3711V38.0855H58.8871C59.2951 38.0855 59.4991 38.3195 59.4991 38.7875V39.3935C59.4991 39.6775 59.3951 39.8195 59.1871 39.8195C58.9751 39.8195 58.8691 39.6775 58.8691 39.3935V38.7155H53.9131V39.3935C53.9131 39.6775 53.8091 39.8195 53.6011 39.8195ZM54.7171 38.0855H57.7351V33.7775H55.8571C55.8451 35.3575 55.4651 36.7935 54.7171 38.0855ZM63.1562 38.7155C62.5402 38.7155 62.0382 38.6555 61.6502 38.5355C61.2622 38.4115 60.9742 38.1955 60.7862 37.8875C60.6022 37.5795 60.5102 37.1455 60.5102 36.5855V35.2715C60.5102 34.7155 60.6022 34.2835 60.7862 33.9755C60.9742 33.6675 61.2622 33.4535 61.6502 33.3335C62.0382 33.2095 62.5402 33.1475 63.1562 33.1475H63.5042C64.1162 33.1475 64.6162 33.2095 65.0042 33.3335C65.3962 33.4535 65.6842 33.6675 65.8682 33.9755C66.0522 34.2835 66.1442 34.7155 66.1442 35.2715V35.7575H61.1402V36.5795C61.1402 37.0035 61.1982 37.3235 61.3142 37.5395C61.4302 37.7555 61.6342 37.9015 61.9262 37.9775C62.2222 38.0495 62.6322 38.0855 63.1562 38.0855H64.8242C65.0762 38.0855 65.2482 38.0315 65.3402 37.9235C65.4362 37.8155 65.4842 37.6375 65.4842 37.3895C65.4842 37.2415 65.5142 37.1315 65.5742 37.0595C65.6382 36.9835 65.7122 36.9455 65.7962 36.9455C65.8882 36.9455 65.9642 36.9815 66.0242 37.0535C66.0842 37.1255 66.1142 37.2275 66.1142 37.3595C66.1142 37.6235 66.0822 37.8595 66.0182 38.0675C65.9542 38.2715 65.8362 38.4315 65.6642 38.5475C65.4922 38.6595 65.2402 38.7155 64.9082 38.7155H63.1562ZM61.1402 35.1275H65.5082C65.5002 34.6235 65.3782 34.2775 65.1422 34.0895C64.9942 33.9655 64.7842 33.8835 64.5122 33.8435C64.2442 33.7995 63.9082 33.7775 63.5042 33.7775H63.1562C62.7562 33.7775 62.4242 33.7975 62.1602 33.8375C61.8962 33.8735 61.6882 33.9455 61.5362 34.0535C61.2802 34.2375 61.1482 34.5955 61.1402 35.1275ZM67.7209 38.7995C67.4329 38.7995 67.2889 38.6935 67.2889 38.4815C67.2889 38.2735 67.4209 38.1695 67.6849 38.1695C67.8609 38.1695 67.9889 38.0875 68.0689 37.9235C68.1529 37.7555 68.2169 37.5515 68.2609 37.3115C68.3169 37.0275 68.4389 36.7475 68.6269 36.4715C68.8189 36.1955 69.0909 35.9875 69.4429 35.8475C69.2669 35.6355 69.0349 35.1855 68.7469 34.4975C68.6549 34.2815 68.5189 34.0915 68.3389 33.9275C68.1629 33.7635 67.9629 33.6815 67.7389 33.6815C67.5949 33.6815 67.4829 33.6555 67.4029 33.6035C67.3269 33.5475 67.2889 33.4675 67.2889 33.3635C67.2889 33.1555 67.4489 33.0515 67.7689 33.0515C68.0689 33.0515 68.3449 33.1335 68.5969 33.2975C68.8489 33.4575 69.0429 33.6615 69.1789 33.9095C69.3309 34.1815 69.4649 34.4675 69.5809 34.7675C69.6689 35.0035 69.7649 35.2035 69.8689 35.3675C69.9769 35.5275 70.0989 35.6075 70.2349 35.6075H70.7809V33.4535C70.7809 33.3255 70.8089 33.2295 70.8649 33.1655C70.9209 33.0975 71.0029 33.0635 71.1109 33.0635C71.2109 33.0635 71.2889 33.0975 71.3449 33.1655C71.4009 33.2295 71.4269 33.3255 71.4229 33.4535V35.6075H71.9689C72.1089 35.6075 72.2309 35.5275 72.3349 35.3675C72.4389 35.2075 72.5349 35.0075 72.6229 34.7675C72.7149 34.5275 72.8209 34.2875 72.9409 34.0475C73.0649 33.8075 73.2369 33.5955 73.4569 33.4115C73.5889 33.2915 73.7389 33.2015 73.9069 33.1415C74.0789 33.0815 74.2589 33.0515 74.4469 33.0515C74.7629 33.0515 74.9209 33.1555 74.9209 33.3635C74.9209 33.5755 74.7749 33.6815 74.4829 33.6815C74.2549 33.6815 74.0489 33.7635 73.8649 33.9275C73.6849 34.0875 73.5489 34.2755 73.4569 34.4915C73.1729 35.1755 72.9409 35.6255 72.7609 35.8415C73.1169 35.9855 73.3909 36.1955 73.5829 36.4715C73.7749 36.7475 73.8969 37.0275 73.9489 37.3115C74.0009 37.5955 74.0689 37.8095 74.1529 37.9535C74.2409 38.0975 74.3549 38.1695 74.4949 38.1695C74.6309 38.1695 74.7349 38.1975 74.8069 38.2535C74.8829 38.3095 74.9209 38.3855 74.9209 38.4815C74.9209 38.5935 74.8789 38.6735 74.7949 38.7215C74.7149 38.7735 74.5989 38.7995 74.4469 38.7995C74.1869 38.7995 73.9789 38.7195 73.8229 38.5595C73.6669 38.3995 73.5549 38.2035 73.4869 37.9715C73.4149 37.7395 73.3309 37.4915 73.2349 37.2275C73.1429 36.9595 72.9609 36.7275 72.6889 36.5315C72.4129 36.3195 71.9909 36.2075 71.4229 36.1955V38.4095C71.4229 38.5335 71.3949 38.6295 71.3389 38.6975C71.2829 38.7655 71.2029 38.7995 71.0989 38.7995C70.9989 38.7995 70.9209 38.7655 70.8649 38.6975C70.8089 38.6295 70.7809 38.5335 70.7809 38.4095V36.1955C70.4649 36.1995 70.1949 36.2375 69.9709 36.3095C69.7469 36.3775 69.5589 36.4675 69.4069 36.5795C69.2669 36.6915 69.1589 36.8215 69.0829 36.9695C69.0069 37.1135 68.9429 37.2735 68.8909 37.4495C68.8389 37.6255 68.7789 37.8115 68.7109 38.0075C68.6349 38.2635 68.5169 38.4575 68.3569 38.5895C68.1969 38.7215 67.9849 38.7915 67.7209 38.7995ZM75.8081 39.8195C75.5961 39.8195 75.4901 39.6775 75.4901 39.3935V38.7875C75.4901 38.3155 75.7021 38.0815 76.1261 38.0855H76.4921L76.1321 38.2355C76.9921 36.8595 77.4221 35.1635 77.4221 33.1475H80.5781V38.0855H81.0941C81.5021 38.0855 81.7061 38.3195 81.7061 38.7875V39.3935C81.7061 39.6775 81.6021 39.8195 81.3941 39.8195C81.1821 39.8195 81.0761 39.6775 81.0761 39.3935V38.7155H76.1201V39.3935C76.1201 39.6775 76.0161 39.8195 75.8081 39.8195ZM76.9241 38.0855H79.9421V33.7775H78.0641C78.0521 35.3575 77.6721 36.7935 76.9241 38.0855ZM87.4212 38.7995C87.3172 38.7995 87.2452 38.7615 87.2052 38.6855C87.1652 38.6095 87.1412 38.4795 87.1332 38.2955C87.1292 38.1075 87.1252 37.8475 87.1212 37.5155L87.2172 37.7435C86.9932 38.0795 86.7052 38.3255 86.3532 38.4815C86.0012 38.6375 85.5832 38.7155 85.0992 38.7155H83.9832C83.6032 38.7155 83.2932 38.5835 83.0532 38.3195C82.8172 38.0555 82.6992 37.6475 82.6992 37.0955C82.6992 36.6555 82.7732 36.3075 82.9212 36.0515C83.0692 35.7955 83.2692 35.6035 83.5212 35.4755C83.7772 35.3475 84.0612 35.2635 84.3732 35.2235C84.6892 35.1835 85.0132 35.1635 85.3452 35.1635H87.3912L87.1092 35.4395V34.4675C87.1092 34.2115 87.0612 34.0335 86.9652 33.9335C86.8732 33.8295 86.7012 33.7775 86.4492 33.7775H84.7572C84.4172 33.7775 84.1412 33.8035 83.9292 33.8555C83.7212 33.9035 83.5692 33.9795 83.4732 34.0835C83.3772 34.1875 83.3292 34.3215 83.3292 34.4855C83.3252 34.6135 83.3032 34.7115 83.2632 34.7795C83.2272 34.8475 83.1432 34.8815 83.0112 34.8815C82.8032 34.8815 82.6992 34.7315 82.6992 34.4315C82.6992 34.0035 82.8752 33.6835 83.2272 33.4715C83.5832 33.2555 84.0652 33.1475 84.6732 33.1475H86.5332C86.9932 33.1475 87.3092 33.2595 87.4812 33.4835C87.6532 33.7035 87.7392 34.0995 87.7392 34.6715V38.3855C87.7392 38.6615 87.6332 38.7995 87.4212 38.7995ZM83.9952 38.0975H85.0992C85.8352 38.0975 86.3572 37.8895 86.6652 37.4735C86.9772 37.0535 87.1252 36.4335 87.1092 35.6135L87.2952 35.7815H85.3452C84.9012 35.7815 84.5292 35.8115 84.2292 35.8715C83.9292 35.9275 83.7032 36.0455 83.5512 36.2255C83.4032 36.4055 83.3292 36.6775 83.3292 37.0415C83.3292 37.4175 83.3952 37.6875 83.5272 37.8515C83.6632 38.0155 83.8192 38.0975 83.9952 38.0975ZM49.235 44.4655C49.359 44.4655 49.445 44.5115 49.493 44.6035C49.545 44.6915 49.545 44.7935 49.493 44.9095L48.929 46.1215L48.389 45.8875L48.953 44.6815C48.985 44.6095 49.023 44.5555 49.067 44.5195C49.111 44.4835 49.167 44.4655 49.235 44.4655ZM48.929 45.6895C49.161 45.6895 49.277 45.8075 49.277 46.0435V46.2715C49.277 46.4995 49.161 46.6135 48.929 46.6135H48.707C48.479 46.6135 48.365 46.4995 48.365 46.2715V46.0435C48.365 45.8075 48.479 45.6895 48.707 45.6895H48.929ZM47.555 44.4655C47.679 44.4655 47.765 44.5115 47.813 44.6035C47.865 44.6915 47.865 44.7935 47.813 44.9095L47.249 46.1215L46.709 45.8875L47.273 44.6815C47.305 44.6095 47.343 44.5555 47.387 44.5195C47.431 44.4835 47.487 44.4655 47.555 44.4655ZM47.249 45.6895C47.481 45.6895 47.597 45.8075 47.597 46.0435V46.2715C47.597 46.4995 47.481 46.6135 47.249 46.6135H47.027C46.799 46.6135 46.685 46.4995 46.685 46.2715V46.0435C46.685 45.8075 46.799 45.6895 47.027 45.6895H47.249ZM53.3061 52.7995C53.1981 52.7995 53.1161 52.7655 53.0601 52.6975C53.0041 52.6335 52.9761 52.5395 52.9761 52.4155V45.6775H51.1521C51.0201 45.6775 50.9201 45.6515 50.8521 45.5995C50.7841 45.5435 50.7501 45.4635 50.7501 45.3595C50.7501 45.2595 50.7841 45.1835 50.8521 45.1315C50.9201 45.0755 51.0201 45.0475 51.1521 45.0475H55.4541C55.7181 45.0475 55.8501 45.1515 55.8501 45.3595C55.8501 45.5715 55.7181 45.6775 55.4541 45.6775H53.6421V52.4155C53.6421 52.5395 53.6121 52.6335 53.5521 52.6975C53.4921 52.7655 53.4101 52.7995 53.3061 52.7995ZM58.0594 52.7875C57.7394 52.7875 57.4934 52.7275 57.3214 52.6075C57.1534 52.4835 57.0374 52.3235 56.9734 52.1275C56.9094 51.9315 56.8774 51.7195 56.8774 51.4915C56.8774 51.1755 56.9814 51.0175 57.1894 51.0175C57.4014 51.0175 57.5074 51.1615 57.5074 51.4495C57.5074 51.6975 57.5474 51.8775 57.6274 51.9895C57.7114 52.1015 57.8574 52.1575 58.0654 52.1575C58.2694 52.1575 58.4274 52.0455 58.5394 51.8215L58.9714 50.8915L56.6734 45.4795C56.6374 45.3875 56.6374 45.2935 56.6734 45.1975C56.7094 45.0975 56.7994 45.0475 56.9434 45.0475C57.0794 45.0475 57.1854 45.1355 57.2614 45.3115L59.3734 50.1175L61.5514 45.2995C61.6234 45.1315 61.7354 45.0475 61.8874 45.0475C62.0234 45.0475 62.1094 45.0915 62.1454 45.1795C62.1814 45.2675 62.1794 45.3655 62.1394 45.4735L59.0974 52.2055C59.0134 52.3935 58.8814 52.5375 58.7014 52.6375C58.5254 52.7375 58.3114 52.7875 58.0594 52.7875ZM63.7289 52.7995C63.5169 52.7995 63.4109 52.6715 63.4109 52.4155V45.4615C63.4109 45.1735 63.5089 45.0295 63.7049 45.0295H65.8589C66.7429 45.0295 67.3949 45.1655 67.8149 45.4375C68.2389 45.7055 68.4509 46.1715 68.4509 46.8355C68.4509 47.4435 68.2769 47.9095 67.9289 48.2335C67.5849 48.5535 67.0689 48.7135 66.3809 48.7135H64.0409V52.4155C64.0409 52.6715 63.9369 52.7995 63.7289 52.7995ZM64.0409 48.0835H65.8589C66.3309 48.0835 66.7109 48.0535 66.9989 47.9935C67.2869 47.9335 67.4949 47.8175 67.6229 47.6455C67.7549 47.4735 67.8209 47.2155 67.8209 46.8715C67.8209 46.5435 67.7589 46.2935 67.6349 46.1215C67.5109 45.9455 67.3049 45.8255 67.0169 45.7615C66.7329 45.6935 66.3469 45.6595 65.8589 45.6595H64.0409V48.0835ZM70.1268 52.7995C69.9148 52.7995 69.8088 52.6615 69.8088 52.3855V46.5775C69.8088 46.0055 69.8948 45.6075 70.0668 45.3835C70.2428 45.1595 70.5588 45.0475 71.0148 45.0475H74.7648C75.0448 45.0475 75.1848 45.1515 75.1848 45.3595C75.1848 45.5715 75.0448 45.6775 74.7648 45.6775H71.0988C70.8508 45.6775 70.6788 45.7295 70.5828 45.8335C70.4868 45.9375 70.4388 46.1215 70.4388 46.3855V52.3855C70.4388 52.6615 70.3348 52.7995 70.1268 52.7995ZM76.0281 52.9075C75.9321 52.9075 75.8561 52.8795 75.8001 52.8235C75.7441 52.7715 75.7161 52.7035 75.7161 52.6195C75.7161 52.5515 75.7281 52.4835 75.7521 52.4155L78.4941 45.0475H79.1781L81.9141 52.4155C81.9421 52.4835 81.9561 52.5515 81.9561 52.6195C81.9561 52.7035 81.9261 52.7715 81.8661 52.8235C81.8101 52.8795 81.7341 52.9075 81.6381 52.9075C81.4901 52.9075 81.3821 52.8155 81.3141 52.6315L80.4621 50.3095H77.2041L76.3521 52.6315C76.2721 52.8155 76.1641 52.9075 76.0281 52.9075ZM77.4501 49.6795H80.2161L78.8241 45.9715L77.4501 49.6795ZM83.5099 52.7995C83.3059 52.7995 83.2039 52.6615 83.2039 52.3855V45.3895C83.2039 45.1055 83.3099 44.9635 83.5219 44.9635C83.7299 44.9635 83.8339 45.1075 83.8339 45.3955V51.5335L88.0939 45.1915C88.1979 45.0395 88.3199 44.9635 88.4599 44.9635C88.6519 44.9635 88.7479 45.1055 88.7479 45.3895V52.3855C88.7479 52.6615 88.6439 52.7995 88.4359 52.7995C88.2239 52.7995 88.1179 52.6635 88.1179 52.3915V46.1875L83.7919 52.6555C83.7559 52.7075 83.7159 52.7435 83.6719 52.7635C83.6319 52.7875 83.5779 52.7995 83.5099 52.7995ZM85.2619 44.6635C84.8499 44.6635 84.5639 44.5615 84.4039 44.3575C84.2439 44.1495 84.1639 43.7835 84.1639 43.2595V42.9295H84.7939V43.4515C84.7939 43.6795 84.8299 43.8335 84.9019 43.9135C84.9779 43.9935 85.1299 44.0335 85.3579 44.0335H86.5819C86.8059 44.0335 86.9519 43.9935 87.0199 43.9135C87.0919 43.8335 87.1279 43.6795 87.1279 43.4515V42.9295H87.7579V43.2595C87.7579 43.7875 87.6799 44.1535 87.5239 44.3575C87.3719 44.5615 87.0859 44.6635 86.6659 44.6635H85.2619ZM92.2273 46.6555C92.1033 46.6555 92.0153 46.6115 91.9633 46.5235C91.9153 46.4355 91.9173 46.3315 91.9693 46.2115L92.5333 44.9995L93.0733 45.2335L92.5093 46.4455C92.4773 46.5175 92.4393 46.5715 92.3953 46.6075C92.3553 46.6395 92.2993 46.6555 92.2273 46.6555ZM92.5333 45.4315C92.3013 45.4315 92.1853 45.3135 92.1853 45.0775V44.8495C92.1853 44.6215 92.3013 44.5075 92.5333 44.5075H92.7553C92.9833 44.5075 93.0973 44.6215 93.0973 44.8495V45.0775C93.0973 45.3135 92.9833 45.4315 92.7553 45.4315H92.5333ZM90.4273 46.6555C90.3033 46.6555 90.2153 46.6115 90.1633 46.5235C90.1153 46.4355 90.1173 46.3315 90.1693 46.2115L90.7333 44.9995L91.2733 45.2335L90.7093 46.4455C90.6773 46.5175 90.6393 46.5715 90.5953 46.6075C90.5553 46.6395 90.4993 46.6555 90.4273 46.6555ZM90.7333 45.4315C90.5013 45.4315 90.3853 45.3135 90.3853 45.0775V44.8495C90.3853 44.6215 90.5013 44.5075 90.7333 44.5075H90.9553C91.1833 44.5075 91.2973 44.6215 91.2973 44.8495V45.0775C91.2973 45.3135 91.1833 45.4315 90.9553 45.4315H90.7333Z" fill="black"/>
<rect x="0.5" y="0.5" width="138.266" height="68.395" rx="9.5" stroke="#DDCC36"/>
</svg>
