<svg width="22" height="23" viewBox="0 0 22 23" fill="none" xmlns="http://www.w3.org/2000/svg">
<path d="M20.4375 8.84613H13.4062V1.81488C13.4062 0.952087 12.7065 0.25238 11.8438 0.25238H10.2812C9.41846 0.25238 8.71875 0.952087 8.71875 1.81488V8.84613H1.6875C0.824707 8.84613 0.125 9.54584 0.125 10.4086V11.9711C0.125 12.8339 0.824707 13.5336 1.6875 13.5336H8.71875V20.5649C8.71875 21.4277 9.41846 22.1274 10.2812 22.1274H11.8438C12.7065 22.1274 13.4062 21.4277 13.4062 20.5649V13.5336H20.4375C21.3003 13.5336 22 12.8339 22 11.9711V10.4086C22 9.54584 21.3003 8.84613 20.4375 8.84613Z" fill="white"/>
</svg>
