<svg width="23" height="23" viewBox="0 0 23 23" fill="none" xmlns="http://www.w3.org/2000/svg">
<path d="M11.5907 11.1761C12.0882 11.1761 12.5143 10.9988 12.8689 10.6442C13.2229 10.2903 13.3999 9.86449 13.3999 9.36697C13.3999 8.86944 13.2229 8.44338 12.8689 8.08878C12.5143 7.73479 12.0882 7.55779 11.5907 7.55779C11.0932 7.55779 10.6674 7.73479 10.3134 8.08878C9.95884 8.44338 9.78154 8.86944 9.78154 9.36697C9.78154 9.86449 9.95884 10.2903 10.3134 10.6442C10.6674 10.9988 11.0932 11.1761 11.5907 11.1761ZM11.5907 17.8249C13.4301 16.1363 14.7945 14.6021 15.684 13.2223C16.5735 11.8431 17.0183 10.6183 17.0183 9.54789C17.0183 7.90455 16.4942 6.55882 15.4461 5.5107C14.3986 4.46319 13.1134 3.93943 11.5907 3.93943C10.068 3.93943 8.78257 4.46319 7.73446 5.5107C6.68694 6.55882 6.16318 7.90455 6.16318 9.54789C6.16318 10.6183 6.60794 11.8431 7.49745 13.2223C8.38697 14.6021 9.75139 16.1363 11.5907 17.8249ZM11.5907 20.222C9.16341 18.1566 7.35061 16.2379 6.15233 14.4661C4.95345 12.695 4.354 11.0555 4.354 9.54789C4.354 7.28641 5.0816 5.48477 6.53678 4.14296C7.99136 2.80115 9.67601 2.13025 11.5907 2.13025C13.5054 2.13025 15.1901 2.80115 16.6447 4.14296C18.0998 5.48477 18.8274 7.28641 18.8274 9.54789C18.8274 11.0555 18.2283 12.695 17.03 14.4661C15.8311 16.2379 14.018 18.1566 11.5907 20.222Z" fill="white"/>
</svg>
